<svg xmlns="http://www.w3.org/2000/svg" width="64" height="64" viewBox="0 0 64 64" fill="none">
  <!-- base plate -->
  <rect x="8" y="53" width="33" height="5" rx="2.5" fill="#13713C"/>
  <!-- pump body -->
  <rect x="12" y="7" width="25" height="46" rx="5" fill="#1F9D55"/>
  <!-- display window -->
  <rect x="16.5" y="13" width="16" height="12" rx="2" fill="#ECFDF3"/>
  <rect x="19" y="17.5" width="11" height="3" rx="1.5" fill="#1F9D55"/>
  <!-- panel slots -->
  <rect x="16.5" y="31" width="16" height="3" rx="1.5" fill="#ECFDF3"/>
  <rect x="16.5" y="38" width="16" height="3" rx="1.5" fill="#ECFDF3"/>
  <rect x="16.5" y="45" width="10" height="3" rx="1.5" fill="#ECFDF3"/>
  <!-- hose riser + nozzle -->
  <path d="M37 29h5.5a4 4 0 0 1 4 4v13a3 3 0 0 0 6 0V27a4 4 0 0 0-4-4h-3" stroke="#13713C" stroke-width="4" stroke-linecap="round" stroke-linejoin="round"/>
</svg>
